<svg width="121" height="49" viewBox="0 0 121 49" fill="none" xmlns="http://www.w3.org/2000/svg">
<g clip-path="url(#clip0_5_819)">
<path d="M15.6749 10.7656C7.14689 10.7656 0.0405273 14.3926 0.0405273 25.3351C0.0405273 34.0039 4.81904 39.463 15.8951 39.463C28.9321 39.463 29.7678 30.8538 29.7678 30.8538H23.4507C23.4507 30.8538 22.0963 35.4896 15.5097 35.4896C10.1451 35.4896 6.28667 31.8566 6.28667 26.7645H30.4284V23.5691C30.4284 18.5314 27.2383 10.7656 15.6749 10.7656ZM15.4547 14.8495C20.5612 14.8495 24.0425 17.9856 24.0425 22.6861H6.42638C6.42638 17.696 10.9704 14.8495 15.4547 14.8495Z" fill="#E53238"/>
<path d="M30.4237 0.169556V33.9677C30.4237 35.8862 30.2871 38.58 30.2871 38.58H36.3122C36.3122 38.58 36.5285 36.6452 36.5285 34.8771C36.5285 34.8771 39.5053 39.5457 47.5995 39.5457C56.1229 39.5457 61.9126 33.6135 61.9126 25.1142C61.9126 17.2075 56.5946 10.8483 47.6132 10.8483C39.2028 10.8483 36.5894 15.4013 36.5894 15.4013V0.169556H30.4237ZM46.058 15.0288C51.8461 15.0288 55.5267 19.3352 55.5267 25.1142C55.5267 31.3112 51.2758 35.3653 46.0993 35.3653C39.9217 35.3653 36.5894 30.5298 36.5894 25.1694C36.5894 20.1746 39.5796 15.0288 46.058 15.0288Z" fill="#0064D2"/>
<path d="M76.8863 10.7656C64.0566 10.7656 63.2338 17.808 63.2338 18.9334H69.6196C69.6196 18.9334 69.9545 14.8219 76.4459 14.8219C80.6641 14.8219 83.9328 16.7574 83.9328 20.4786V21.8031H76.4459C66.5065 21.8031 61.252 24.718 61.252 30.6331C61.252 36.4544 66.107 39.6217 72.6681 39.6217C81.6097 39.6217 84.4901 34.6686 84.4901 34.6686C84.4901 36.6387 84.6417 38.58 84.6417 38.58H90.3186C90.3186 38.58 90.0984 36.1737 90.0984 34.6342V21.3271C90.0984 12.6019 83.078 10.7656 76.8863 10.7656ZM83.9328 25.7766V27.5426C83.9328 29.8459 82.515 35.5723 74.1682 35.5723C69.5975 35.5723 67.6378 33.2856 67.6378 30.6331C67.6378 25.8077 74.2373 25.7766 83.9328 25.7766Z" fill="#F5AF02"/>
<path d="M86.6597 11.8705H93.8438L104.154 32.5776L114.44 11.8705H120.948L102.211 48.7356H95.3852L100.792 38.459L86.6597 11.8705Z" fill="#86B817"/>
</g>
<defs>
<clipPath id="clip0_5_819">
<rect width="120.989" height="48.6468" fill="white" transform="translate(0 0.12915)"/>
</clipPath>
</defs>
</svg>
